<svg xmlns="http://www.w3.org/2000/svg" viewBox="0 0 209.52 209.52"><defs><style>.cls-1{fill:#fcce0c;}.cls-2{fill:#c88a2b;}</style></defs><title>star</title><g id="Layer_2" data-name="Layer 2"><g id="Large"><polygon class="cls-1" points="104.76 0 119.38 69.46 178.84 30.68 140.06 90.14 209.52 104.76 140.06 119.38 178.84 178.84 119.38 140.06 104.76 209.52 90.14 140.06 30.68 178.84 69.46 119.38 0 104.76 69.46 90.14 30.68 30.68 90.14 69.46 104.76 0"/></g><g id="Small"><polygon class="cls-2" points="185.86 72.05 136.65 105.06 185.24 138.98 127.1 127.52 137.47 185.86 104.46 136.65 70.54 185.24 82 127.1 23.66 137.47 72.87 104.46 24.29 70.54 82.42 82 72.05 23.66 105.06 72.87 138.98 24.29 127.52 82.42 185.86 72.05"/></g></g></svg>